<svg width="118" height="118" viewBox="0 0 118 118" fill="none" xmlns="http://www.w3.org/2000/svg">
<circle cx="59" cy="59" r="56" fill="#3A7E33" stroke="white" stroke-width="6"/>
<path d="M32.5156 59.153L40.8232 55.5185V46.1725L50.1692 51.3647L58.4767 47.7301L40.8232 37.3457L32.5156 41.4995V59.153Z" fill="white"/>
<path d="M85.999 41.4998L78.7299 37.8652L69.3839 43.0574L75.6146 46.1728L32 66.4224V76.8068L38.7499 79.9222L48.6151 75.7684L42.3844 72.1339L85.999 52.4034V41.4998Z" fill="white"/>
<path d="M86.0001 75.7694V59.1543L78.2118 62.2696V71.6156L68.3466 66.9426L60.0391 71.6156L78.2118 80.4424L86.0001 75.7694Z" fill="white"/>
<path d="M59.5154 80.9617L54.8424 78.8848L46.0156 83.0385L59.5154 90.3076L73.0151 83.0385L65.2268 78.8848L59.5154 80.9617Z" fill="white"/>
<path d="M59.5154 28L46.0156 34.7499L54.3232 39.9421L59.5154 37.346L63.6692 39.9421L73.0151 35.7883L59.5154 28Z" fill="white"/>
</svg>
