<svg width="118" height="118" viewBox="0 0 118 118" fill="none" xmlns="http://www.w3.org/2000/svg">
<circle cx="59" cy="59" r="56" fill="#3A7E33" stroke="white" stroke-width="6"/>
<path d="M83.8918 36.9939C83.6947 36.4053 83.4595 36.2504 83.092 36.1032C82.2884 35.8012 80.9272 36.2581 80.9272 36.2581C80.9272 36.2581 32.7372 53.8229 29.9841 55.7668C29.3913 56.185 29.1927 56.4328 29.0942 56.7193C28.6183 58.0979 30.101 58.7097 30.101 58.7097L42.5218 62.8143C42.5218 62.8143 42.9847 62.884 43.1497 62.7756C45.9754 60.9634 71.5787 44.5758 73.0553 44.0259C73.2883 43.9562 73.4609 44.0337 73.4151 44.1963C72.8238 46.3029 50.5862 66.3381 50.5862 66.3381C50.5862 66.3381 50.5014 66.4465 50.448 66.5705L50.4189 66.555L49.2601 79.047C49.2601 79.047 48.7743 82.8728 52.5487 79.047C55.2116 76.3441 57.7882 74.0827 59.0776 72.9907C63.3485 75.9801 67.9448 79.2871 69.9287 81.0141C70.9248 81.8815 71.7582 82.0209 72.4442 81.9977C74.3272 81.928 74.8527 79.8292 74.8527 79.8292C74.8527 79.8292 83.6344 43.995 83.9277 39.1933C83.9567 38.7209 83.9965 38.4266 83.9995 38.1013C84.0049 37.6521 83.9636 37.203 83.8918 36.9939Z" fill="white"/>
</svg>
