<svg width="118" height="118" viewBox="0 0 118 118" fill="none" xmlns="http://www.w3.org/2000/svg">
<circle cx="59" cy="59" r="56" fill="#3A7E33" stroke="white" stroke-width="6"/>
<path d="M69.8036 78.9626L57.3002 60.7963L55.5197 58.2104L41.011 37.1305H47.252L58.9853 54.1783L60.7657 56.7643L76.0445 78.9626H69.8036ZM78.6246 77.1881L62.8765 54.3093L61.0961 51.7217L49.8309 35.3557L48.8972 33.9994H35.0547L38.4306 38.905L53.409 60.6681L55.1895 63.2529L67.2243 80.739L68.1581 82.0938H82.0007L78.6246 77.1881Z" fill="white"/>
<path d="M55.5191 58.2104L57.2996 60.7963L55.1889 63.2529L38.9936 82.0938H35L53.4083 60.6681L55.5191 58.2104Z" fill="white"/>
<path d="M80.3332 34.0007L62.8756 54.3106L60.7648 56.7656L58.9844 54.1797L61.0952 51.7231L72.9207 37.9588L76.3395 34.0007H80.3332Z" fill="white"/>
</svg>
