<svg width="825" height="386" viewBox="0 0 825 386" fill="none" xmlns="http://www.w3.org/2000/svg">
<mask id="path-1-outside-1_191_102" maskUnits="userSpaceOnUse" x="-10" y="75" width="845" height="267" fill="black">
<rect fill="white" x="-10" y="75" width="845" height="267"/>
<path d="M159.3 329H99.9L94.2 281.6H67.8L63.3 329H4.5L25.5 102.8C26.1 93.2 30.9 88.1 38.7 88.1H127.8C135.3 88.1 138.3 93.8 139.2 102.5L159.3 329ZM91.5 245.9L84.9 181.4C84.6 179.6 84 179 82.5 179H78.6C77.4 179 76.8 179.6 76.5 181.4L70.2 245.9C70.2 248 71.7 248.9 73.8 248.9H87.9C90.3 248.9 91.5 247.7 91.5 245.9ZM266.07 289.1V277.7C266.07 271.7 263.07 268.1 257.07 268.1H234.57V297.2H257.07C263.07 297.2 266.07 294.2 266.07 289.1ZM266.07 231.2V190.7C266.07 185.6 263.67 182.9 258.87 182.9H234.57V236.6H257.07C263.07 236.6 266.07 234.8 266.07 231.2ZM303.57 329H176.37V88.1H293.07C320.37 88.1 326.07 93.8 326.07 125.3V220.4C326.07 238.7 320.07 245.6 303.57 247.1C320.07 248.6 326.07 253.4 326.07 274.1V301.4C326.07 320.3 320.67 329 303.57 329ZM466.807 329H373.807C354.907 329 348.607 323 348.607 304.4V128C348.607 94.1 354.907 88.1 383.707 88.1H456.907C485.707 88.1 492.307 94.1 492.307 128V304.4C492.307 323 485.707 329 466.807 329ZM438.307 287.9V191.3C438.307 185.6 435.007 182.9 428.707 182.9H411.607C405.307 182.9 402.607 185.6 402.607 191.3V287.9C402.607 293.9 405.607 297.2 411.907 297.2H428.707C435.007 297.2 438.307 293.9 438.307 287.9ZM660.213 329H540.813C521.913 329 515.313 323 515.313 304.4V88.1H572.013V287.9C572.013 293.9 575.313 297.2 581.313 297.2H602.613V88.1H660.213V329ZM776.749 329H720.649V191.9C720.649 185.9 717.349 182.9 710.749 182.9H675.949V88.1H821.449V182.9H786.649C779.149 182.9 776.749 185.9 776.749 191.9V329Z"/>
</mask>
<path d="M159.3 329H99.9L94.2 281.6H67.8L63.3 329H4.5L25.5 102.8C26.1 93.2 30.9 88.1 38.7 88.1H127.8C135.3 88.1 138.3 93.8 139.2 102.5L159.3 329ZM91.5 245.9L84.9 181.4C84.6 179.6 84 179 82.5 179H78.6C77.4 179 76.8 179.6 76.5 181.4L70.2 245.9C70.2 248 71.7 248.9 73.8 248.9H87.9C90.3 248.9 91.5 247.7 91.5 245.9ZM266.07 289.1V277.7C266.07 271.7 263.07 268.1 257.07 268.1H234.57V297.2H257.07C263.07 297.2 266.07 294.2 266.07 289.1ZM266.07 231.2V190.7C266.07 185.6 263.67 182.9 258.87 182.9H234.57V236.6H257.07C263.07 236.6 266.07 234.8 266.07 231.2ZM303.57 329H176.37V88.1H293.07C320.37 88.1 326.07 93.8 326.07 125.3V220.4C326.07 238.7 320.07 245.6 303.57 247.1C320.07 248.6 326.07 253.4 326.07 274.1V301.4C326.07 320.3 320.67 329 303.57 329ZM466.807 329H373.807C354.907 329 348.607 323 348.607 304.4V128C348.607 94.1 354.907 88.1 383.707 88.1H456.907C485.707 88.1 492.307 94.1 492.307 128V304.4C492.307 323 485.707 329 466.807 329ZM438.307 287.9V191.3C438.307 185.6 435.007 182.9 428.707 182.9H411.607C405.307 182.9 402.607 185.6 402.607 191.3V287.9C402.607 293.9 405.607 297.2 411.907 297.2H428.707C435.007 297.2 438.307 293.9 438.307 287.9ZM660.213 329H540.813C521.913 329 515.313 323 515.313 304.4V88.1H572.013V287.9C572.013 293.9 575.313 297.2 581.313 297.2H602.613V88.1H660.213V329ZM776.749 329H720.649V191.9C720.649 185.9 717.349 182.9 710.749 182.9H675.949V88.1H821.449V182.9H786.649C779.149 182.9 776.749 185.9 776.749 191.9V329Z" fill="black"/>
<path d="M159.3 329V342H173.505L172.249 327.851L159.3 329ZM99.9 329L86.993 330.552L88.3696 342H99.9V329ZM94.2 281.6L107.107 280.048L105.73 268.6H94.2V281.6ZM67.8 281.6V268.6H55.9757L54.8582 280.371L67.8 281.6ZM63.3 329V342H75.1243L76.2418 330.229L63.3 329ZM4.5 329L-8.44434 327.798L-9.7628 342H4.5V329ZM25.5 102.8L38.4443 104.002L38.4625 103.807L38.4747 103.611L25.5 102.8ZM139.2 102.5L152.149 101.351L152.141 101.257L152.131 101.162L139.2 102.5ZM91.5 245.9H104.5V245.237L104.432 244.577L91.5 245.9ZM84.9 181.4L97.8325 180.077L97.7907 179.668L97.7231 179.263L84.9 181.4ZM76.5 181.4L63.6769 179.263L63.6044 179.698L63.5616 180.136L76.5 181.4ZM70.2 245.9L57.2616 244.636L57.2 245.267V245.9H70.2ZM159.3 316H99.9V342H159.3V316ZM112.807 327.448L107.107 280.048L81.293 283.152L86.993 330.552L112.807 327.448ZM94.2 268.6H67.8V294.6H94.2V268.6ZM54.8582 280.371L50.3582 327.771L76.2418 330.229L80.7418 282.829L54.8582 280.371ZM63.3 316H4.5V342H63.3V316ZM17.4443 330.202L38.4443 104.002L12.5557 101.598L-8.44434 327.798L17.4443 330.202ZM38.4747 103.611C38.6589 100.663 39.3879 100.189 39.0192 100.595C38.8186 100.815 38.5398 101.004 38.2969 101.102C38.0902 101.185 38.1667 101.1 38.7 101.1V75.1C31.7834 75.1 24.898 77.4763 19.7808 83.1052C14.9121 88.4608 12.9411 95.3368 12.5253 101.989L38.4747 103.611ZM38.7 101.1H127.8V75.1H38.7V101.1ZM127.8 101.1C128.003 101.1 127.561 101.129 126.837 100.77C126.086 100.397 125.611 99.8927 125.407 99.6085C125.258 99.4001 125.406 99.5253 125.637 100.3C125.867 101.067 126.101 102.214 126.269 103.838L152.131 101.162C151.6 96.025 150.309 89.7238 146.543 84.4665C142.148 78.3322 135.471 75.1 127.8 75.1V101.1ZM126.251 103.649L146.351 330.149L172.249 327.851L152.149 101.351L126.251 103.649ZM104.432 244.577L97.8325 180.077L71.9675 182.723L78.5675 247.223L104.432 244.577ZM97.7231 179.263C97.4731 177.763 96.7176 173.708 93.3424 170.333C89.4483 166.439 84.7877 166 82.5 166V192C81.7123 192 78.1017 191.861 74.9576 188.717C73.5786 187.338 72.8665 185.925 72.5141 185.03C72.1819 184.187 72.0861 183.592 72.0769 183.537L97.7231 179.263ZM82.5 166H78.6V192H82.5V166ZM78.6 166C75.6795 166 71.1379 166.842 67.5497 170.828C64.6634 174.035 63.938 177.696 63.6769 179.263L89.3231 183.537C89.3112 183.609 89.2251 184.126 88.943 184.871C88.6541 185.633 88.0568 186.909 86.8753 188.222C85.6097 189.628 84.0207 190.689 82.2904 191.325C80.6856 191.914 79.3374 192 78.6 192V166ZM63.5616 180.136L57.2616 244.636L83.1384 247.164L89.4384 182.664L63.5616 180.136ZM57.2 245.9C57.2 250.392 59.008 255.22 63.3157 258.514C67.0602 261.378 71.1726 261.9 73.8 261.9V235.9C74.3274 235.9 76.6398 235.972 79.1094 237.861C82.142 240.18 83.2 243.508 83.2 245.9H57.2ZM73.8 261.9H87.9V235.9H73.8V261.9ZM87.9 261.9C91.124 261.9 95.4627 261.094 99.1606 257.858C103.086 254.424 104.5 249.823 104.5 245.9H78.5C78.5 243.777 79.3143 240.676 82.0394 238.292C84.5373 236.106 87.076 235.9 87.9 235.9V261.9ZM234.57 268.1V255.1H221.57V268.1H234.57ZM234.57 297.2H221.57V310.2H234.57V297.2ZM234.57 182.9V169.9H221.57V182.9H234.57ZM234.57 236.6H221.57V249.6H234.57V236.6ZM176.37 329H163.37V342H176.37V329ZM176.37 88.1V75.1H163.37V88.1H176.37ZM303.57 247.1L302.393 234.153L302.393 260.047L303.57 247.1ZM279.07 289.1V277.7H253.07V289.1H279.07ZM279.07 277.7C279.07 272.699 277.821 266.726 273.439 261.905C268.869 256.878 262.722 255.1 257.07 255.1V281.1C257.287 281.1 256.977 281.134 256.354 280.895C255.678 280.636 254.886 280.149 254.2 279.395C252.818 277.874 253.07 276.701 253.07 277.7H279.07ZM257.07 255.1H234.57V281.1H257.07V255.1ZM221.57 268.1V297.2H247.57V268.1H221.57ZM234.57 310.2H257.07V284.2H234.57V310.2ZM257.07 310.2C262.081 310.2 267.956 308.945 272.647 304.606C277.497 300.12 279.07 294.213 279.07 289.1H253.07C253.07 289.121 253.065 288.671 253.337 287.946C253.629 287.168 254.166 286.283 254.992 285.519C256.683 283.955 258.058 284.2 257.07 284.2V310.2ZM279.07 231.2V190.7H253.07V231.2H279.07ZM279.07 190.7C279.07 186.331 278.058 180.703 273.864 176.115C269.477 171.318 263.687 169.9 258.87 169.9V195.9C258.852 195.9 256.662 195.832 254.675 193.659C252.881 191.697 253.07 189.969 253.07 190.7H279.07ZM258.87 169.9H234.57V195.9H258.87V169.9ZM221.57 182.9V236.6H247.57V182.9H221.57ZM234.57 249.6H257.07V223.6H234.57V249.6ZM257.07 249.6C260.945 249.6 266.013 249.094 270.508 246.397C276.061 243.066 279.07 237.404 279.07 231.2H253.07C253.07 230.259 253.279 228.804 254.143 227.249C255.016 225.677 256.19 224.667 257.131 224.103C257.987 223.589 258.551 223.496 258.458 223.515C258.382 223.53 257.959 223.6 257.07 223.6V249.6ZM303.57 316H176.37V342H303.57V316ZM189.37 329V88.1H163.37V329H189.37ZM176.37 101.1H293.07V75.1H176.37V101.1ZM293.07 101.1C307.333 101.1 309.652 103.038 310.154 103.595C310.415 103.884 311.282 105.014 311.989 108.669C312.71 112.39 313.07 117.656 313.07 125.3H339.07C339.07 117.194 338.717 109.935 337.515 103.728C336.301 97.4547 334.036 91.2531 329.46 86.1798C320.287 76.0115 306.106 75.1 293.07 75.1V101.1ZM313.07 125.3V220.4H339.07V125.3H313.07ZM313.07 220.4C313.07 228.659 311.599 231.045 311.093 231.641C310.809 231.976 309.368 233.519 302.393 234.153L304.747 260.047C314.271 259.181 324.08 256.524 330.921 248.459C337.54 240.655 339.07 230.441 339.07 220.4H313.07ZM302.393 260.047C306.095 260.383 308.386 260.845 309.845 261.343C310.522 261.574 310.897 261.774 311.083 261.889C311.251 261.993 311.305 262.053 311.326 262.076C311.439 262.202 313.07 264.197 313.07 274.1H339.07C339.07 263.303 337.7 252.548 330.688 244.724C323.536 236.744 313.311 234.932 304.747 234.153L302.393 260.047ZM313.07 274.1V301.4H339.07V274.1H313.07ZM313.07 301.4C313.07 310.285 311.651 313.421 310.925 314.365C310.89 314.411 310.049 316 303.57 316V342C314.19 342 324.599 339.239 331.539 330.21C337.788 322.079 339.07 311.415 339.07 301.4H313.07ZM466.807 316H373.807V342H466.807V316ZM373.807 316C364.959 316 363.241 314.412 363.178 314.35C363.152 314.325 363.075 314.248 362.955 314.034C362.826 313.802 362.621 313.36 362.409 312.6C361.961 310.992 361.607 308.426 361.607 304.4H335.607C335.607 314.445 337.141 325.306 345.061 333C352.873 340.588 363.755 342 373.807 342V316ZM361.607 304.4V128H335.607V304.4H361.607ZM361.607 128C361.607 119.77 362.003 114.037 362.8 109.955C363.585 105.936 364.571 104.532 365.01 104.044C365.854 103.109 368.709 101.1 383.707 101.1V75.1C369.905 75.1 355.21 76.091 345.704 86.6305C340.968 91.8806 338.579 98.3323 337.282 104.973C335.998 111.55 335.607 119.28 335.607 128H361.607ZM383.707 101.1H456.907V75.1H383.707V101.1ZM456.907 101.1C471.879 101.1 474.886 103.097 475.816 104.113C476.282 104.622 477.28 106.034 478.08 110.02C478.893 114.078 479.307 119.791 479.307 128H505.307C505.307 119.259 504.896 111.51 503.572 104.908C502.234 98.2344 499.782 91.7903 494.998 86.5616C485.428 76.1033 470.736 75.1 456.907 75.1V101.1ZM479.307 128V304.4H505.307V128H479.307ZM479.307 304.4C479.307 308.387 478.94 310.921 478.487 312.497C478.075 313.93 477.688 314.252 477.675 314.265C477.511 314.422 475.633 316 466.807 316V342C476.881 342 487.753 340.578 495.614 333.085C503.65 325.425 505.307 314.571 505.307 304.4H479.307ZM451.307 287.9V191.3H425.307V287.9H451.307ZM451.307 191.3C451.307 185.907 449.656 179.675 444.349 175.108C439.417 170.865 433.411 169.9 428.707 169.9V195.9C430.303 195.9 429.097 196.285 427.39 194.817C426.493 194.044 425.892 193.109 425.568 192.271C425.275 191.513 425.307 191.099 425.307 191.3H451.307ZM428.707 169.9H411.607V195.9H428.707V169.9ZM411.607 169.9C406.942 169.9 400.73 170.851 395.797 175.531C390.71 180.358 389.607 186.623 389.607 191.3H415.607C415.607 190.276 415.854 192.342 413.692 194.394C411.684 196.299 409.972 195.9 411.607 195.9V169.9ZM389.607 191.3V287.9H415.607V191.3H389.607ZM389.607 287.9C389.607 292.903 390.864 299.037 395.592 303.881C400.376 308.782 406.596 310.2 411.907 310.2V284.2C410.918 284.2 412.488 283.968 414.197 285.719C415.851 287.413 415.607 288.897 415.607 287.9H389.607ZM411.907 310.2H428.707V284.2H411.907V310.2ZM428.707 310.2C434.014 310.2 440.151 308.791 444.953 304.1C449.804 299.362 451.307 293.222 451.307 287.9H425.307C425.307 288.578 425.16 287.088 426.786 285.5C428.363 283.959 429.7 284.2 428.707 284.2V310.2ZM660.213 329V342H673.213V329H660.213ZM515.313 88.1V75.1H502.313V88.1H515.313ZM572.013 88.1H585.013V75.1H572.013V88.1ZM602.613 297.2V310.2H615.613V297.2H602.613ZM602.613 88.1V75.1H589.613V88.1H602.613ZM660.213 88.1H673.213V75.1H660.213V88.1ZM660.213 316H540.813V342H660.213V316ZM540.813 316C531.987 316 530.11 314.422 529.946 314.265C529.932 314.252 529.546 313.93 529.133 312.497C528.68 310.921 528.313 308.387 528.313 304.4H502.313C502.313 314.571 503.97 325.425 512.006 333.085C519.867 340.578 530.74 342 540.813 342V316ZM528.313 304.4V88.1H502.313V304.4H528.313ZM515.313 101.1H572.013V75.1H515.313V101.1ZM559.013 88.1V287.9H585.013V88.1H559.013ZM559.013 287.9C559.013 293.218 560.511 299.283 565.221 303.992C569.931 308.702 575.995 310.2 581.313 310.2V284.2C580.632 284.2 582.046 284.048 583.606 285.608C585.165 287.167 585.013 288.582 585.013 287.9H559.013ZM581.313 310.2H602.613V284.2H581.313V310.2ZM615.613 297.2V88.1H589.613V297.2H615.613ZM602.613 101.1H660.213V75.1H602.613V101.1ZM647.213 88.1V329H673.213V88.1H647.213ZM776.749 329V342H789.749V329H776.749ZM720.649 329H707.649V342H720.649V329ZM675.949 182.9H662.949V195.9H675.949V182.9ZM675.949 88.1V75.1H662.949V88.1H675.949ZM821.449 88.1H834.449V75.1H821.449V88.1ZM821.449 182.9V195.9H834.449V182.9H821.449ZM776.749 316H720.649V342H776.749V316ZM733.649 329V191.9H707.649V329H733.649ZM733.649 191.9C733.649 186.56 732.124 180.262 726.919 175.531C721.949 171.013 715.763 169.9 710.749 169.9V195.9C712.336 195.9 711.099 196.287 709.429 194.769C708.588 194.005 708.079 193.131 707.825 192.438C707.598 191.819 707.649 191.558 707.649 191.9H733.649ZM710.749 169.9H675.949V195.9H710.749V169.9ZM688.949 182.9V88.1H662.949V182.9H688.949ZM675.949 101.1H821.449V75.1H675.949V101.1ZM808.449 88.1V182.9H834.449V88.1H808.449ZM821.449 169.9H786.649V195.9H821.449V169.9ZM786.649 169.9C781.639 169.9 774.962 170.817 769.809 175.845C764.542 180.983 763.749 187.581 763.749 191.9H789.749C789.749 191.188 789.83 191.247 789.679 191.746C789.492 192.359 789.009 193.437 787.965 194.455C786.938 195.457 785.952 195.833 785.594 195.938C785.325 196.017 785.568 195.9 786.649 195.9V169.9ZM763.749 191.9V329H789.749V191.9H763.749Z" fill="black" mask="url(#path-1-outside-1_191_102)"/>
<mask id="path-3-outside-2_191_102" maskUnits="userSpaceOnUse" x="-10" y="49" width="845" height="267" fill="black">
<rect fill="white" x="-10" y="49" width="845" height="267"/>
<path d="M159.3 303H99.9L94.2 255.6H67.8L63.3 303H4.5L25.5 76.8C26.1 67.2 30.9 62.1 38.7 62.1H127.8C135.3 62.1 138.3 67.8 139.2 76.5L159.3 303ZM91.5 219.9L84.9 155.4C84.6 153.6 84 153 82.5 153H78.6C77.4 153 76.8 153.6 76.5 155.4L70.2 219.9C70.2 222 71.7 222.9 73.8 222.9H87.9C90.3 222.9 91.5 221.7 91.5 219.9ZM266.07 263.1V251.7C266.07 245.7 263.07 242.1 257.07 242.1H234.57V271.2H257.07C263.07 271.2 266.07 268.2 266.07 263.1ZM266.07 205.2V164.7C266.07 159.6 263.67 156.9 258.87 156.9H234.57V210.6H257.07C263.07 210.6 266.07 208.8 266.07 205.2ZM303.57 303H176.37V62.1H293.07C320.37 62.1 326.07 67.8 326.07 99.3V194.4C326.07 212.7 320.07 219.6 303.57 221.1C320.07 222.6 326.07 227.4 326.07 248.1V275.4C326.07 294.3 320.67 303 303.57 303ZM466.807 303H373.807C354.907 303 348.607 297 348.607 278.4V102C348.607 68.1 354.907 62.1 383.707 62.1H456.907C485.707 62.1 492.307 68.1 492.307 102V278.4C492.307 297 485.707 303 466.807 303ZM438.307 261.9V165.3C438.307 159.6 435.007 156.9 428.707 156.9H411.607C405.307 156.9 402.607 159.6 402.607 165.3V261.9C402.607 267.9 405.607 271.2 411.907 271.2H428.707C435.007 271.2 438.307 267.9 438.307 261.9ZM660.213 303H540.813C521.913 303 515.313 297 515.313 278.4V62.1H572.013V261.9C572.013 267.9 575.313 271.2 581.313 271.2H602.613V62.1H660.213V303ZM776.749 303H720.649V165.9C720.649 159.9 717.349 156.9 710.749 156.9H675.949V62.1H821.449V156.9H786.649C779.149 156.9 776.749 159.9 776.749 165.9V303Z"/>
</mask>
<path d="M159.3 303H99.9L94.2 255.6H67.8L63.3 303H4.5L25.5 76.8C26.1 67.2 30.9 62.1 38.7 62.1H127.8C135.3 62.1 138.3 67.8 139.2 76.5L159.3 303ZM91.5 219.9L84.9 155.4C84.6 153.6 84 153 82.5 153H78.6C77.4 153 76.8 153.6 76.5 155.4L70.2 219.9C70.2 222 71.7 222.9 73.8 222.9H87.9C90.3 222.9 91.5 221.7 91.5 219.9ZM266.07 263.1V251.7C266.07 245.7 263.07 242.1 257.07 242.1H234.57V271.2H257.07C263.07 271.2 266.07 268.2 266.07 263.1ZM266.07 205.2V164.7C266.07 159.6 263.67 156.9 258.87 156.9H234.57V210.6H257.07C263.07 210.6 266.07 208.8 266.07 205.2ZM303.57 303H176.37V62.1H293.07C320.37 62.1 326.07 67.8 326.07 99.3V194.4C326.07 212.7 320.07 219.6 303.57 221.1C320.07 222.6 326.07 227.4 326.07 248.1V275.4C326.07 294.3 320.67 303 303.57 303ZM466.807 303H373.807C354.907 303 348.607 297 348.607 278.4V102C348.607 68.1 354.907 62.1 383.707 62.1H456.907C485.707 62.1 492.307 68.1 492.307 102V278.4C492.307 297 485.707 303 466.807 303ZM438.307 261.9V165.3C438.307 159.6 435.007 156.9 428.707 156.9H411.607C405.307 156.9 402.607 159.6 402.607 165.3V261.9C402.607 267.9 405.607 271.2 411.907 271.2H428.707C435.007 271.2 438.307 267.9 438.307 261.9ZM660.213 303H540.813C521.913 303 515.313 297 515.313 278.4V62.1H572.013V261.9C572.013 267.9 575.313 271.2 581.313 271.2H602.613V62.1H660.213V303ZM776.749 303H720.649V165.9C720.649 159.9 717.349 156.9 710.749 156.9H675.949V62.1H821.449V156.9H786.649C779.149 156.9 776.749 159.9 776.749 165.9V303Z" fill="#6D440A"/>
<path d="M159.3 303V316H173.505L172.249 301.851L159.3 303ZM99.9 303L86.993 304.552L88.3696 316H99.9V303ZM94.2 255.6L107.107 254.048L105.73 242.6H94.2V255.6ZM67.8 255.6V242.6H55.9757L54.8582 254.371L67.8 255.6ZM63.3 303V316H75.1243L76.2418 304.229L63.3 303ZM4.5 303L-8.44434 301.798L-9.7628 316H4.5V303ZM25.5 76.8L38.4443 78.0017L38.4625 77.8066L38.4747 77.6109L25.5 76.8ZM139.2 76.5L152.149 75.3509L152.141 75.2565L152.131 75.1623L139.2 76.5ZM91.5 219.9H104.5V219.237L104.432 218.577L91.5 219.9ZM84.9 155.4L97.8325 154.077L97.7907 153.668L97.7231 153.263L84.9 155.4ZM76.5 155.4L63.6769 153.263L63.6044 153.698L63.5616 154.136L76.5 155.4ZM70.2 219.9L57.2616 218.636L57.2 219.267V219.9H70.2ZM159.3 290H99.9V316H159.3V290ZM112.807 301.448L107.107 254.048L81.293 257.152L86.993 304.552L112.807 301.448ZM94.2 242.6H67.8V268.6H94.2V242.6ZM54.8582 254.371L50.3582 301.771L76.2418 304.229L80.7418 256.829L54.8582 254.371ZM63.3 290H4.5V316H63.3V290ZM17.4443 304.202L38.4443 78.0017L12.5557 75.5983L-8.44434 301.798L17.4443 304.202ZM38.4747 77.6109C38.6589 74.6632 39.3879 74.1892 39.0192 74.5947C38.8186 74.8154 38.5398 75.0039 38.2969 75.102C38.0902 75.1854 38.1667 75.1 38.7 75.1V49.1C31.7834 49.1 24.898 51.4763 19.7808 57.1052C14.9121 62.4608 12.9411 69.3368 12.5253 75.9891L38.4747 77.6109ZM38.7 75.1H127.8V49.1H38.7V75.1ZM127.8 75.1C128.003 75.1 127.561 75.1294 126.837 74.7702C126.086 74.397 125.611 73.8927 125.407 73.6085C125.258 73.4001 125.406 73.5253 125.637 74.3C125.867 75.0671 126.101 76.2138 126.269 77.8377L152.131 75.1623C151.6 70.025 150.309 63.7238 146.543 58.4665C142.148 52.3322 135.471 49.1 127.8 49.1V75.1ZM126.251 77.6491L146.351 304.149L172.249 301.851L152.149 75.3509L126.251 77.6491ZM104.432 218.577L97.8325 154.077L71.9675 156.723L78.5675 221.223L104.432 218.577ZM97.7231 153.263C97.4731 151.763 96.7176 147.708 93.3424 144.333C89.4483 140.439 84.7877 140 82.5 140V166C81.7123 166 78.1017 165.861 74.9576 162.717C73.5786 161.338 72.8665 159.925 72.5141 159.03C72.1819 158.187 72.0861 157.592 72.0769 157.537L97.7231 153.263ZM82.5 140H78.6V166H82.5V140ZM78.6 140C75.6795 140 71.1379 140.842 67.5497 144.828C64.6634 148.035 63.938 151.696 63.6769 153.263L89.3231 157.537C89.3112 157.609 89.2251 158.126 88.943 158.871C88.6541 159.633 88.0568 160.909 86.8753 162.222C85.6097 163.628 84.0207 164.689 82.2904 165.325C80.6856 165.914 79.3374 166 78.6 166V140ZM63.5616 154.136L57.2616 218.636L83.1384 221.164L89.4384 156.664L63.5616 154.136ZM57.2 219.9C57.2 224.392 59.008 229.22 63.3157 232.514C67.0602 235.378 71.1726 235.9 73.8 235.9V209.9C74.3274 209.9 76.6398 209.972 79.1094 211.861C82.142 214.18 83.2 217.508 83.2 219.9H57.2ZM73.8 235.9H87.9V209.9H73.8V235.9ZM87.9 235.9C91.124 235.9 95.4627 235.094 99.1606 231.858C103.086 228.424 104.5 223.823 104.5 219.9H78.5C78.5 217.777 79.3143 214.676 82.0394 212.292C84.5373 210.106 87.076 209.9 87.9 209.9V235.9ZM234.57 242.1V229.1H221.57V242.1H234.57ZM234.57 271.2H221.57V284.2H234.57V271.2ZM234.57 156.9V143.9H221.57V156.9H234.57ZM234.57 210.6H221.57V223.6H234.57V210.6ZM176.37 303H163.37V316H176.37V303ZM176.37 62.1V49.1H163.37V62.1H176.37ZM303.57 221.1L302.393 208.153L302.393 234.047L303.57 221.1ZM279.07 263.1V251.7H253.07V263.1H279.07ZM279.07 251.7C279.07 246.699 277.821 240.726 273.439 235.905C268.869 230.878 262.722 229.1 257.07 229.1V255.1C257.287 255.1 256.977 255.134 256.354 254.895C255.678 254.636 254.886 254.149 254.2 253.395C252.818 251.874 253.07 250.701 253.07 251.7H279.07ZM257.07 229.1H234.57V255.1H257.07V229.1ZM221.57 242.1V271.2H247.57V242.1H221.57ZM234.57 284.2H257.07V258.2H234.57V284.2ZM257.07 284.2C262.081 284.2 267.956 282.945 272.647 278.606C277.497 274.12 279.07 268.213 279.07 263.1H253.07C253.07 263.121 253.065 262.671 253.337 261.946C253.629 261.168 254.166 260.283 254.992 259.519C256.683 257.955 258.058 258.2 257.07 258.2V284.2ZM279.07 205.2V164.7H253.07V205.2H279.07ZM279.07 164.7C279.07 160.331 278.058 154.703 273.864 150.115C269.477 145.318 263.687 143.9 258.87 143.9V169.9C258.852 169.9 256.662 169.832 254.675 167.659C252.881 165.697 253.07 163.969 253.07 164.7H279.07ZM258.87 143.9H234.57V169.9H258.87V143.9ZM221.57 156.9V210.6H247.57V156.9H221.57ZM234.57 223.6H257.07V197.6H234.57V223.6ZM257.07 223.6C260.945 223.6 266.013 223.094 270.508 220.397C276.061 217.066 279.07 211.404 279.07 205.2H253.07C253.07 204.259 253.279 202.804 254.143 201.249C255.016 199.677 256.19 198.667 257.131 198.103C257.987 197.589 258.551 197.496 258.458 197.515C258.382 197.53 257.959 197.6 257.07 197.6V223.6ZM303.57 290H176.37V316H303.57V290ZM189.37 303V62.1H163.37V303H189.37ZM176.37 75.1H293.07V49.1H176.37V75.1ZM293.07 75.1C307.333 75.1 309.652 77.0385 310.154 77.5952C310.415 77.8844 311.282 79.014 311.989 82.6691C312.71 86.3897 313.07 91.6565 313.07 99.3H339.07C339.07 91.1935 338.717 83.9353 337.515 77.7278C336.301 71.4547 334.036 65.2531 329.46 60.1798C320.287 50.0115 306.106 49.1 293.07 49.1V75.1ZM313.07 99.3V194.4H339.07V99.3H313.07ZM313.07 194.4C313.07 202.659 311.599 205.045 311.093 205.641C310.809 205.976 309.368 207.519 302.393 208.153L304.747 234.047C314.271 233.181 324.08 230.524 330.921 222.459C337.54 214.655 339.07 204.441 339.07 194.4H313.07ZM302.393 234.047C306.095 234.383 308.386 234.845 309.845 235.343C310.522 235.574 310.897 235.774 311.083 235.889C311.251 235.993 311.305 236.053 311.326 236.076C311.439 236.202 313.07 238.197 313.07 248.1H339.07C339.07 237.303 337.7 226.548 330.688 218.724C323.536 210.744 313.311 208.932 304.747 208.153L302.393 234.047ZM313.07 248.1V275.4H339.07V248.1H313.07ZM313.07 275.4C313.07 284.285 311.651 287.421 310.925 288.365C310.89 288.411 310.049 290 303.57 290V316C314.19 316 324.599 313.239 331.539 304.21C337.788 296.079 339.07 285.415 339.07 275.4H313.07ZM466.807 290H373.807V316H466.807V290ZM373.807 290C364.959 290 363.241 288.412 363.178 288.35C363.152 288.325 363.075 288.248 362.955 288.034C362.826 287.802 362.621 287.36 362.409 286.6C361.961 284.992 361.607 282.426 361.607 278.4H335.607C335.607 288.445 337.141 299.306 345.061 307C352.873 314.588 363.755 316 373.807 316V290ZM361.607 278.4V102H335.607V278.4H361.607ZM361.607 102C361.607 93.77 362.003 88.0374 362.8 83.9553C363.585 79.9365 364.571 78.5319 365.01 78.0445C365.854 77.109 368.709 75.1 383.707 75.1V49.1C369.905 49.1 355.21 50.091 345.704 60.6305C340.968 65.8806 338.579 72.3323 337.282 78.9728C335.998 85.5501 335.607 93.28 335.607 102H361.607ZM383.707 75.1H456.907V49.1H383.707V75.1ZM456.907 75.1C471.879 75.1 474.886 77.0967 475.816 78.1134C476.282 78.6222 477.28 80.0343 478.08 84.02C478.893 88.078 479.307 93.7906 479.307 102H505.307C505.307 93.2593 504.896 85.5095 503.572 78.9081C502.234 72.2344 499.782 65.7903 494.998 60.5616C485.428 50.1033 470.736 49.1 456.907 49.1V75.1ZM479.307 102V278.4H505.307V102H479.307ZM479.307 278.4C479.307 282.387 478.94 284.921 478.487 286.497C478.075 287.93 477.688 288.252 477.675 288.265C477.511 288.422 475.633 290 466.807 290V316C476.881 316 487.753 314.578 495.614 307.085C503.65 299.425 505.307 288.571 505.307 278.4H479.307ZM451.307 261.9V165.3H425.307V261.9H451.307ZM451.307 165.3C451.307 159.907 449.656 153.675 444.349 149.108C439.417 144.865 433.411 143.9 428.707 143.9V169.9C430.303 169.9 429.097 170.285 427.39 168.817C426.493 168.044 425.892 167.109 425.568 166.271C425.275 165.513 425.307 165.099 425.307 165.3H451.307ZM428.707 143.9H411.607V169.9H428.707V143.9ZM411.607 143.9C406.942 143.9 400.73 144.851 395.797 149.531C390.71 154.358 389.607 160.623 389.607 165.3H415.607C415.607 164.276 415.854 166.342 413.692 168.394C411.684 170.299 409.972 169.9 411.607 169.9V143.9ZM389.607 165.3V261.9H415.607V165.3H389.607ZM389.607 261.9C389.607 266.903 390.864 273.037 395.592 277.881C400.376 282.782 406.596 284.2 411.907 284.2V258.2C410.918 258.2 412.488 257.968 414.197 259.719C415.851 261.413 415.607 262.897 415.607 261.9H389.607ZM411.907 284.2H428.707V258.2H411.907V284.2ZM428.707 284.2C434.014 284.2 440.151 282.791 444.953 278.1C449.804 273.362 451.307 267.222 451.307 261.9H425.307C425.307 262.578 425.16 261.088 426.786 259.5C428.363 257.959 429.7 258.2 428.707 258.2V284.2ZM660.213 303V316H673.213V303H660.213ZM515.313 62.1V49.1H502.313V62.1H515.313ZM572.013 62.1H585.013V49.1H572.013V62.1ZM602.613 271.2V284.2H615.613V271.2H602.613ZM602.613 62.1V49.1H589.613V62.1H602.613ZM660.213 62.1H673.213V49.1H660.213V62.1ZM660.213 290H540.813V316H660.213V290ZM540.813 290C531.987 290 530.11 288.422 529.946 288.265C529.932 288.252 529.546 287.93 529.133 286.497C528.68 284.921 528.313 282.387 528.313 278.4H502.313C502.313 288.571 503.97 299.425 512.006 307.085C519.867 314.578 530.74 316 540.813 316V290ZM528.313 278.4V62.1H502.313V278.4H528.313ZM515.313 75.1H572.013V49.1H515.313V75.1ZM559.013 62.1V261.9H585.013V62.1H559.013ZM559.013 261.9C559.013 267.218 560.511 273.283 565.221 277.992C569.931 282.702 575.995 284.2 581.313 284.2V258.2C580.632 258.2 582.046 258.048 583.606 259.608C585.165 261.167 585.013 262.582 585.013 261.9H559.013ZM581.313 284.2H602.613V258.2H581.313V284.2ZM615.613 271.2V62.1H589.613V271.2H615.613ZM602.613 75.1H660.213V49.1H602.613V75.1ZM647.213 62.1V303H673.213V62.1H647.213ZM776.749 303V316H789.749V303H776.749ZM720.649 303H707.649V316H720.649V303ZM675.949 156.9H662.949V169.9H675.949V156.9ZM675.949 62.1V49.1H662.949V62.1H675.949ZM821.449 62.1H834.449V49.1H821.449V62.1ZM821.449 156.9V169.9H834.449V156.9H821.449ZM776.749 290H720.649V316H776.749V290ZM733.649 303V165.9H707.649V303H733.649ZM733.649 165.9C733.649 160.56 732.124 154.262 726.919 149.531C721.949 145.013 715.763 143.9 710.749 143.9V169.9C712.336 169.9 711.099 170.287 709.429 168.769C708.588 168.005 708.079 167.131 707.825 166.438C707.598 165.819 707.649 165.558 707.649 165.9H733.649ZM710.749 143.9H675.949V169.9H710.749V143.9ZM688.949 156.9V62.1H662.949V156.9H688.949ZM675.949 75.1H821.449V49.1H675.949V75.1ZM808.449 62.1V156.9H834.449V62.1H808.449ZM821.449 143.9H786.649V169.9H821.449V143.9ZM786.649 143.9C781.639 143.9 774.962 144.817 769.809 149.845C764.542 154.983 763.749 161.581 763.749 165.9H789.749C789.749 165.188 789.83 165.247 789.679 165.746C789.492 166.359 789.009 167.437 787.965 168.455C786.938 169.457 785.952 169.833 785.594 169.938C785.325 170.017 785.568 169.9 786.649 169.9V143.9ZM763.749 165.9V303H789.749V165.9H763.749Z" fill="white" mask="url(#path-3-outside-2_191_102)"/>
</svg>
